<svg height="464pt" viewBox="0 -36 464 464" width="464pt" xmlns="http://www.w3.org/2000/svg"><path d="m104 147.527344c0-6.679688.640625-13.28125 1.832031-19.773438-15.054687-1.1875-29.71875-6.664062-41.832031-15.746094l-21.328125-16 21.320313-16c13.777343-10.320312 30.824218-16 48.007812-16 0-7.375 1.472656-14.398437 4.070312-20.855468-8.558593-7.175782-18.148437-11.144532-28.070312-11.144532-30.871094 0-56 35.886719-56 80 0 44.113282 25.128906 80 56 80h25.425781l-.859375-2.03125c-5.6875-13.511718-8.566406-27.792968-8.566406-42.449218zm0 0"/><path d="m211.238281 368c-2.941406 0-5.824219-.304688-8.605469-.863281 2.398438 14.40625 14.75 24.863281 29.367188 24.863281s26.960938-10.457031 29.367188-24.863281c-2.78125.566406-5.664063.863281-8.605469.863281zm0 0"/><path d="m200 270.742188v-12.148438c0-31.480469-4.902344-62.585938-14.496094-92.554688-3.304687-.886718-6.472656-2.0625-9.503906-3.511718v13.472656h-16v-24.921875c-9.3125-9.527344-15.296875-22.308594-15.945312-36.492187-5.285157-2.507813-10.015626-5.84375-14.175782-9.730469l-3.191406 7.984375c-4.441406 11.089844-6.6875 22.753906-6.6875 34.6875 0 12.503906 2.464844 24.703125 7.320312 36.242187l48.839844 115.992188c.632813-.890625 1.160156-1.839844 1.863282-2.691407l21.585937-25.902343c.125-.152344.261719-.273438.390625-.425781zm0 0"/><path d="m112 80c-13.753906 0-27.390625 4.542969-38.40625 12.800781l-4.265625 3.199219 4.273437 3.199219c10.496094 7.871093 23.40625 12.242187 36.503907 12.640625.566406-1.648438 1.0625-3.320313 1.710937-4.945313l6.757813-16.894531c-1.6875-3.199219-3.175781-6.503906-4.222657-10zm0 0"/><path d="m16 112c0-52.9375 32.296875-96 72-96 12.945312 0 25.351562 4.519531 36.3125 13.054688 3.320312-4.144532 7.207031-7.789063 11.558594-10.847657-14.199219-11.757812-30.773438-18.207031-47.871094-18.207031-48.519531 0-88 50.238281-88 112s39.480469 112 88 112c10.023438 0 18.785156-6.511719 21.71875-16h-21.71875c-39.703125 0-72-43.0625-72-96zm0 0"/><path d="m154.792969 101.710938 5.695312 1.992187-.417969 6.832031c-.03125.488282-.070312.976563-.070312 1.464844 0 22.054688 17.945312 40 40 40 9.824219 0 19.289062-3.640625 26.65625-10.246094l5.34375-4.800781 5.34375 4.800781c7.367188 6.605469 16.832031 10.246094 26.65625 10.246094 22.054688 0 40-17.945312 40-40 0-.496094-.039062-.976562-.070312-1.464844l-.058594-.808594-.359375-6.03125 5.695312-1.992187c16.023438-5.605469 26.792969-20.765625 26.792969-37.703125 0-22.054688-17.945312-40-40-40-3.398438 0-6.742188.488281-10.007812 1.34375 1.273437 4.6875 2.007812 9.585938 2.007812 14.65625h-16c0-22.054688-17.945312-40-40-40s-40 17.945312-40 40h-16c0-5.078125.734375-9.976562 2.007812-14.65625-3.273437-.863281-6.609374-1.34375-10.007812-1.34375-22.054688 0-40 17.945312-40 40 0 16.9375 10.769531 32.097656 26.792969 37.710938zm0 0"/><path d="m232 256c5.574219 0 10.984375 1.152344 16 3.207031v-.613281c0-30.816406 4.464844-61.3125 13.207031-90.808594-10.488281-.527344-20.605469-3.875-29.207031-9.890625-8.601562 6.015625-18.710938 9.363281-29.207031 9.890625 8.742187 29.503906 13.207031 59.992188 13.207031 90.816406v.613282c5.015625-2.0625 10.425781-3.214844 16-3.214844zm0 0"/><path d="m252.097656 281.414062c-4.984375-5.980468-12.304687-9.414062-20.097656-9.414062s-15.113281 3.433594-20.097656 9.414062l-21.582032 25.898438c-4.082031 4.894531-6.320312 11.085938-6.320312 17.449219 0 15.023437 12.214844 27.238281 27.238281 27.238281h41.515625c15.023438 0 27.238282-12.214844 27.238282-27.238281 0-6.363281-2.238282-12.554688-6.320313-17.441407zm6.246094 47.554688-7.03125 7.03125c-5.160156 5.160156-12.015625 8-19.3125 8s-14.160156-2.839844-19.3125-8l-7.03125-7.03125c-3.59375-3.59375-5.65625-8.570312-5.65625-13.65625 0-10.648438 8.664062-19.3125 19.3125-19.3125h25.375c10.648438 0 19.3125 8.664062 19.3125 19.3125 0 5.085938-2.0625 10.0625-5.65625 13.65625zm0 0"/><path d="m353.886719 111.847656c13.105469-.398437 26.007812-4.777344 36.511719-12.640625l4.265624-3.199219-4.273437-3.199218c-11.007813-8.25-24.648437-12.800782-38.398437-12.800782h-2.359376c-1.046874 3.496094-2.535156 6.800782-4.226562 10l6.761719 16.894532c.664062 1.625 1.152343 3.296875 1.71875 4.945312zm0 0"/><path d="m334.128906 104.855469c-4.167968 3.886719-8.898437 7.222656-14.175781 9.730469-.648437 14.183593-6.632813 26.972656-15.945313 36.492187v24.921875h-16v-13.472656c-3.03125 1.449218-6.207031 2.625-9.503906 3.511718-9.601562 29.96875-14.503906 61.082032-14.503906 92.5625v12.152344c.128906.140625.265625.269532.390625.414063l21.585937 25.910156c.703126.84375 1.230469 1.792969 1.863282 2.683594l48.839844-115.992188c4.855468-11.539062 7.320312-23.738281 7.320312-36.242187 0-11.933594-2.246094-23.597656-6.679688-34.6875zm0 0"/><path d="m432 112c0-44.113281-25.128906-80-56-80-9.921875 0-19.511719 3.96875-28.070312 11.144531 2.597656 6.457031 4.070312 13.488281 4.070312 20.855469 17.183594 0 34.230469 5.679688 48 16l21.328125 16-21.320313 16c-12.121093 9.078125-26.785156 14.558594-41.839843 15.742188 1.191406 6.503906 1.832031 13.105468 1.832031 19.785156 0 14.65625-2.878906 28.9375-8.566406 42.449218l-.859375 2.03125h25.425781c30.871094-.007812 56-35.894531 56-80.007812zm0 0"/><path d="m244.6875 312h-25.375c-1.832031 0-3.3125 1.488281-3.3125 3.3125 0 .871094.351562 1.726562.96875 2.34375l7.03125 7.03125c4.28125 4.265625 11.71875 4.265625 16 0l7.03125-7.03125c.617188-.617188.96875-1.464844.96875-2.34375 0-1.824219-1.488281-3.3125-3.3125-3.3125zm0 0"/><path d="m376 0c-17.097656 0-33.671875 6.449219-47.871094 18.207031 4.34375 3.058594 8.238282 6.714844 11.558594 10.847657 10.96875-8.527344 23.367188-13.054688 36.3125-13.054688 39.703125 0 72 43.0625 72 96s-32.296875 96-72 96h-21.71875c2.933594 9.488281 11.695312 16 21.71875 16 48.519531 0 88-50.238281 88-112s-39.480469-112-88-112zm0 0"/></svg>